<?xml version="1.0" encoding="UTF-8" standalone="no"?>
<!-- Created with Inkscape (http://www.inkscape.org/) -->

<svg
   width="300mm"
   height="300mm"
   viewBox="0 0 300 300"
   version="1.1"
   id="svg1"
   inkscape:version="1.4 (86a8ad7, 2024-10-11)"
   sodipodi:docname="word will icon.svg"
   inkscape:export-filename="word wall text.png"
   inkscape:export-xdpi="96"
   inkscape:export-ydpi="96"
   xmlns:inkscape="http://www.inkscape.org/namespaces/inkscape"
   xmlns:sodipodi="http://sodipodi.sourceforge.net/DTD/sodipodi-0.dtd"
   xmlns="http://www.w3.org/2000/svg"
   xmlns:svg="http://www.w3.org/2000/svg">
  <sodipodi:namedview
     id="namedview1"
     pagecolor="#ffffff"
     bordercolor="#000000"
     borderopacity="0.25"
     inkscape:showpageshadow="2"
     inkscape:pageopacity="0.0"
     inkscape:pagecheckerboard="0"
     inkscape:deskcolor="#d1d1d1"
     inkscape:document-units="mm"
     inkscape:zoom="1.7256703"
     inkscape:cx="462.13925"
     inkscape:cy="873.57357"
     inkscape:window-width="2560"
     inkscape:window-height="1494"
     inkscape:window-x="-11"
     inkscape:window-y="-11"
     inkscape:window-maximized="1"
     inkscape:current-layer="layer1" />
  <defs
     id="defs1">
    <filter
       inkscape:collect="always"
       style="color-interpolation-filters:sRGB"
       id="filter17"
       x="-0.79691435"
       y="-0.071674359"
       width="2.5938287"
       height="1.1433487">
      <feGaussianBlur
         inkscape:collect="always"
         stdDeviation="2.1335184"
         id="feGaussianBlur17" />
    </filter>
    <filter
       inkscape:collect="always"
       style="color-interpolation-filters:sRGB"
       id="filter18"
       x="-0.67922901"
       y="-0.10153207"
       width="2.358458"
       height="1.2030641">
      <feGaussianBlur
         inkscape:collect="always"
         stdDeviation="2.043 3.041"
         id="feGaussianBlur18" />
    </filter>
    <filter
       inkscape:collect="always"
       style="color-interpolation-filters:sRGB"
       id="filter19"
       x="-0.013498815"
       y="-0.27572965"
       width="1.0269976"
       height="1.5514593">
      <feGaussianBlur
         inkscape:collect="always"
         stdDeviation="0.19890814"
         id="feGaussianBlur19" />
    </filter>
    <filter
       inkscape:collect="always"
       style="color-interpolation-filters:sRGB"
       id="filter21"
       x="-0.013498815"
       y="-0.27572965"
       width="1.0269976"
       height="1.5514593">
      <feGaussianBlur
         inkscape:collect="always"
         stdDeviation="0.19890814"
         id="feGaussianBlur21" />
    </filter>
    <filter
       inkscape:collect="always"
       style="color-interpolation-filters:sRGB"
       id="filter22"
       x="-0.051317871"
       y="-0.041963407"
       width="1.1026357"
       height="1.0839268">
      <feGaussianBlur
         inkscape:collect="always"
         stdDeviation="0.10200678"
         id="feGaussianBlur22" />
    </filter>
    <filter
       inkscape:collect="always"
       style="color-interpolation-filters:sRGB"
       id="filter25"
       x="-0.12452134"
       y="-0.43267442"
       width="1.2490427"
       height="1.8653488">
      <feGaussianBlur
         inkscape:collect="always"
         stdDeviation="0.41471129"
         id="feGaussianBlur25" />
    </filter>
    <filter
       inkscape:collect="always"
       style="color-interpolation-filters:sRGB"
       id="filter30"
       x="-0.059994329"
       y="-0.059443952"
       width="1.1199887"
       height="1.1188879">
      <feGaussianBlur
         inkscape:collect="always"
         stdDeviation="0.66105853"
         id="feGaussianBlur30" />
    </filter>
    <filter
       inkscape:collect="always"
       style="color-interpolation-filters:sRGB"
       id="filter31"
       x="-0.61935047"
       y="-0.055136172"
       width="2.2387009"
       height="1.1102723">
      <feGaussianBlur
         inkscape:collect="always"
         stdDeviation="1.6737234"
         id="feGaussianBlur31" />
    </filter>
  </defs>
  <g
     inkscape:label="Layer 1"
     inkscape:groupmode="layer"
     id="layer1">
    <rect
       style="fill:#303030;fill-opacity:1;stroke-width:0.180411"
       id="rect35"
       width="49.010216"
       height="32.755951"
       x="-277.21576"
       y="358.26974"
       ry="0"
       transform="matrix(1,0,0.80323201,0.5956663,0,0)" />
    <rect
       style="fill:#ffd42a;fill-opacity:1;stroke-width:0.21772"
       id="rect22"
       width="48.353119"
       height="48.353119"
       x="89.575638"
       y="183.75584"
       ry="0" />
    <path
       id="path1"
       style="fill:#1a1a1a;stroke-width:0.260946"
       d="m 35.214494,117.08138 c -3e-6,2.79436 -1.671168,-3.06645 -10.924197,-3.06645 -9.483011,0 -10.924193,5.86081 -10.924196,3.06645 10e-7,-2.79436 4.89093,-5.05963 10.924196,-5.05963 6.033267,0 10.924196,2.26527 10.924197,5.05963 z"
       sodipodi:nodetypes="sssss" />
    <path
       id="path2"
       style="fill:#1a1a1a;stroke-width:0.260946"
       d="m 79.168664,117.35082 c 0,2.79436 -1.67117,-3.06645 -10.92419,-3.06645 -9.483017,0 -10.924197,5.86081 -10.924197,3.06645 0,-2.79436 4.89093,-5.05963 10.924197,-5.05963 6.03326,0 10.92419,2.26527 10.92419,5.05963 z"
       sodipodi:nodetypes="sssss" />
    <rect
       style="fill:#2ca02c;fill-opacity:1;stroke-width:0.21772"
       id="rect7"
       width="48.353119"
       height="48.353119"
       x="194.06297"
       y="183.75584"
       ry="0" />
    <rect
       style="fill:#303030;fill-opacity:1;stroke-width:0.21772"
       id="rect13"
       width="48.353119"
       height="48.353119"
       x="141.81931"
       y="183.75584"
       ry="0" />
    <rect
       style="fill:#ffd42a;fill-opacity:1;stroke-width:0.21772"
       id="rect31"
       width="48.353119"
       height="48.353119"
       x="194.06406"
       y="235.69437"
       ry="0" />
    <rect
       style="fill:#2ca02c;fill-opacity:1;stroke-width:0.21772"
       id="rect32"
       width="48.353119"
       height="48.353119"
       x="141.95255"
       y="235.69437"
       ry="0" />
    <rect
       style="fill:#2ca02c;fill-opacity:1;stroke-width:0.21772"
       id="rect33"
       width="48.353119"
       height="48.353119"
       x="89.841042"
       y="235.69437"
       ry="0" />
    <rect
       style="fill:#303030;fill-opacity:1;stroke-width:0.21772"
       id="rect34"
       width="48.353119"
       height="48.353119"
       x="37.72953"
       y="235.69437"
       ry="0" />
    <g
       id="g53"
       inkscape:transform-center-x="111.37911"
       inkscape:transform-center-y="45.188412"
       transform="matrix(1.2029739,0,0,1.2029739,-17.435561,-24.355254)">
      <rect
         style="fill:#71c837;stroke-width:0.160312"
         id="rect1"
         width="12.258062"
         height="51.479248"
         x="-28.083843"
         y="160.35724"
         transform="rotate(-17.513088)"
         ry="5.011456" />
      <rect
         style="fill:#71c837;stroke-width:0.16479"
         id="rect2"
         width="10.82739"
         height="37.972107"
         x="109.62631"
         y="139.07179"
         transform="rotate(21.95321)"
         ry="4.3770547" />
      <rect
         style="fill:#71c837;stroke-width:0.124394"
         id="rect3"
         width="22.636106"
         height="6.5682693"
         x="17.297718"
         y="158.80087" />
      <rect
         style="fill:#71c837;stroke-width:0.160312"
         id="rect8"
         width="12.258062"
         height="51.479248"
         x="-129.0264"
         y="128.50484"
         transform="matrix(-0.95364824,-0.30092365,-0.30092365,0.95364824,0,0)"
         ry="5.011456" />
      <rect
         style="fill:#71c837;stroke-width:0.16479"
         id="rect9"
         width="10.82739"
         height="37.972107"
         x="11.452612"
         y="178.64331"
         transform="matrix(-0.92748946,0.37384929,0.37384929,0.92748946,0,0)"
         ry="4.3770547" />
      <rect
         style="fill:#71c837;stroke-width:0.124394"
         id="rect10"
         width="22.636106"
         height="6.5682693"
         x="-88.551117"
         y="158.80087"
         transform="scale(-1,1)" />
      <rect
         style="fill:#8ad259;fill-opacity:1;stroke-width:0.136728;filter:url(#filter17)"
         id="rect25"
         width="6.4253383"
         height="71.440392"
         x="-253.86798"
         y="-157.45638"
         transform="matrix(-0.20861459,-0.5868539,-0.18971497,0.59323333,-5.1342223,110.53193)"
         ry="6.9546552" />
      <rect
         style="fill:#8ad259;fill-opacity:1;stroke-width:0.136728;filter:url(#filter17)"
         id="rect27"
         width="6.4253383"
         height="71.440392"
         x="-253.86798"
         y="-157.45638"
         transform="matrix(-0.22740705,-0.34585003,-0.17324172,0.36939293,-30.790273,147.65632)"
         ry="6.9546552" />
      <rect
         style="fill:#8ad259;fill-opacity:1;stroke-width:0.136728;filter:url(#filter17)"
         id="rect28"
         width="6.4253383"
         height="71.440392"
         x="-253.86798"
         y="-157.45638"
         transform="matrix(0.22740705,-0.34585003,0.17324172,0.36939293,136.52325,147.65632)"
         ry="6.9546552" />
      <rect
         style="fill:#8ad259;fill-opacity:1;stroke-width:0.136728;filter:url(#filter17)"
         id="rect26"
         width="6.4253383"
         height="71.440392"
         x="-253.86798"
         y="-157.45638"
         transform="matrix(0.20861459,-0.5868539,0.18971497,0.59323333,110.5622,110.53193)"
         ry="6.9546552" />
      <path
         id="rect16"
         style="fill:#64b030;stroke-width:0.136728;filter:url(#filter31)"
         transform="matrix(-0.20861459,-0.5868539,-0.18971497,0.59323333,-0.36593657,111.53243)"
         d="m -250.65531,-157.45638 c 1.77982,0 3.21267,3.10178 3.21267,6.95466 v 57.531081 c 0,3.852879 0.48512,8.369086 -1.2947,8.369086 -1.77982,0 -5.13064,-4.516207 -5.13064,-8.369086 v -57.531081 c 0,-3.85288 1.43285,-6.95466 3.21267,-6.95466 z"
         sodipodi:nodetypes="sssssss" />
      <path
         id="rect17"
         style="fill:#64b030;stroke-width:0.136728;filter:url(#filter18)"
         transform="matrix(-0.08577881,-0.2274354,-0.08951849,0.22521247,16.998595,169.088)"
         d="m -250.65531,-157.45638 c 1.77982,0 3.16202,3.06438 3.21267,6.95466 l 0.76894,59.057174 c 0.0507,3.890279 0.0918,5.87087 -1.68804,5.87087 -1.77982,0 -3.36224,-2.915849 -3.49891,-6.868944 l -2.00733,-58.0591 c -0.13667,-3.9531 1.43285,-6.95466 3.21267,-6.95466 z"
         sodipodi:nodetypes="sssssss" />
      <rect
         style="mix-blend-mode:normal;fill:#91d565;fill-opacity:1;stroke-width:0.0798263;filter:url(#filter19)"
         id="rect18"
         width="35.364552"
         height="1.7313318"
         x="-142.70605"
         y="76.519943"
         transform="matrix(-0.62283028,0,0,0.62283028,-0.71176687,111.14192)" />
      <rect
         style="mix-blend-mode:normal;fill:#91d565;fill-opacity:1;stroke-width:0.0798263;filter:url(#filter19)"
         id="rect19"
         width="35.364552"
         height="1.7313318"
         x="-142.70605"
         y="76.519943"
         transform="matrix(-0.62283028,0,0,0.62283028,-49.236471,111.14192)" />
      <rect
         style="mix-blend-mode:normal;fill:#5faa2f;fill-opacity:1;stroke-width:0.0798263;filter:url(#filter21)"
         id="rect20"
         width="35.364552"
         height="1.7313318"
         x="-142.70605"
         y="76.519943"
         transform="matrix(-0.02937843,0,0,2.504828,35.677307,-31.576142)" />
      <rect
         style="mix-blend-mode:normal;fill:#5faa2f;fill-opacity:1;stroke-width:0.0798263;filter:url(#filter21)"
         id="rect21"
         width="35.364552"
         height="1.7313318"
         x="-142.70605"
         y="76.519943"
         transform="matrix(-0.02937843,0,0,2.504828,84.309843,-31.576142)" />
      <g
         id="g31"
         transform="matrix(0.62283028,0,0,0.62283028,-0.63551767,111.37067)">
        <ellipse
           style="mix-blend-mode:normal;fill:#660000;fill-opacity:0.508475;stroke-width:0.297434;filter:url(#filter30)"
           id="circle29"
           cx="85.917412"
           cy="107.52937"
           rx="13.222421"
           ry="13.344844"
           transform="matrix(0.94872238,0,0,0.97416648,4.4056402,3.1451336)" />
        <circle
           style="fill:#ff8080;stroke-width:0.287843"
           id="circle16"
           cx="85.917412"
           cy="107.03967"
           r="12.855149" />
        <circle
           style="fill:#e9afaf;stroke-width:0.240597"
           id="path10"
           cx="85.917412"
           cy="107.03967"
           r="10.745141" />
        <ellipse
           style="fill:#de8787;stroke-width:0.112938"
           id="ellipse12"
           cx="80.242783"
           cy="107.15594"
           rx="2.3852923"
           ry="5.7382259" />
        <ellipse
           style="fill:#de8787;stroke-width:0.112938"
           id="ellipse13"
           cx="91.016075"
           cy="107.15594"
           rx="2.3852923"
           ry="5.7382259" />
        <path
           id="path23"
           style="fill:#d66c6c;fill-opacity:1;stroke-width:0.112938;filter:url(#filter22)"
           d="m 93.398198,107.15594 c -10e-7,3.16913 -1.067933,5.73822 -2.385292,5.73822 -1.31736,0 -2.385292,-2.56909 -2.385293,-5.73822 0,-0.81248 1.067932,4.51476 2.385293,4.51476 1.317361,0 2.385292,-5.38845 2.385292,-4.51476 z"
           sodipodi:nodetypes="sssss"
           transform="rotate(180,90.991263,107.12044)" />
        <path
           id="path24"
           style="fill:#d66c6c;fill-opacity:1;stroke-width:0.112938;filter:url(#filter22)"
           d="m 93.398198,107.15594 c -10e-7,3.16913 -1.067933,5.73822 -2.385292,5.73822 -1.31736,0 -2.385292,-2.56909 -2.385293,-5.73822 0,-0.81248 1.067932,4.51476 2.385293,4.51476 1.317361,0 2.385292,-5.38845 2.385292,-4.51476 z"
           sodipodi:nodetypes="sssss"
           transform="rotate(180,85.645772,107.12044)" />
        <ellipse
           style="mix-blend-mode:normal;fill:#efc5c5;fill-opacity:1;stroke-width:0.0480068;filter:url(#filter25)"
           id="circle24"
           cx="132.54625"
           cy="25.698055"
           rx="3.9965324"
           ry="1.1501802"
           transform="matrix(0.6172861,-0.28546184,-0.03090807,0.76563809,0.82598681,116.56593)" />
      </g>
      <g
         id="g1"
         transform="matrix(0.62283028,0,0,0.62283028,-0.70735917,111.85184)">
        <ellipse
           style="fill:#1a1a1a;stroke-width:0.264583"
           id="path11"
           cx="56.571312"
           cy="97.041222"
           rx="5.3238492"
           ry="14.110365" />
        <circle
           style="fill:#ffffff;stroke-width:0.172189"
           id="path13"
           cx="59.100063"
           cy="91.08326"
           r="1.2548434" />
        <circle
           style="fill:#ffffff;stroke-width:0.386375"
           id="circle13"
           cx="54.968266"
           cy="97.632935"
           r="2.8157461" />
        <ellipse
           style="mix-blend-mode:normal;fill:#1a1a1a;fill-opacity:0.372881;stroke-width:0.0467698"
           id="ellipse28"
           cx="56.571312"
           cy="111.09346"
           rx="3.6582346"
           ry="0.64165413" />
      </g>
      <g
         id="g3"
         transform="matrix(0.62283028,0,0,0.62283028,-0.97841957,111.09749)">
        <g
           id="g2">
          <ellipse
             style="fill:#1a1a1a;stroke-width:0.264583"
             id="ellipse11"
             cx="115.43664"
             cy="97.041222"
             rx="5.3238492"
             ry="14.110365" />
          <circle
             style="fill:#ffffff;stroke-width:0.172189"
             id="circle14"
             cx="117.98589"
             cy="91.08326"
             r="1.2548434" />
          <circle
             style="fill:#ffffff;stroke-width:0.386375"
             id="circle15"
             cx="113.85409"
             cy="97.632935"
             r="2.8157461" />
          <ellipse
             style="fill:#1a1a1a;fill-opacity:0.372881;stroke-width:0.0467698"
             id="ellipse29"
             cx="115.45713"
             cy="111.09346"
             rx="3.6582346"
             ry="0.64165413" />
        </g>
      </g>
      <rect
         style="fill:#ffd42a;fill-opacity:0;stroke-width:0.264583"
         id="rect53"
         width="72.421265"
         height="65.049042"
         x="15.394941"
         y="140.28909"
         ry="4.3315701" />
    </g>
    <g
       id="g52"
       style="fill:#ffffff">
      <path
         id="path3"
         style="fill:#ffffff;fill-opacity:1;stroke-width:0.220884"
         d="m 113.76515,188.73938 a 13.798986,18.55197 0 0 0 -13.799159,18.55184 13.798986,18.55197 0 0 0 13.799159,18.55236 13.798986,18.55197 0 0 0 13.79864,-18.55236 13.798986,18.55197 0 0 0 -13.79864,-18.55184 z m 0,6.70502 a 8.8118935,11.8471 0 0 1 8.81186,11.84682 8.8118935,11.8471 0 0 1 -8.81186,11.84734 8.8118935,11.8471 0 0 1 -8.81187,-11.84734 8.8118935,11.8471 0 0 1 8.81187,-11.84682 z" />
      <rect
         style="fill:#ffffff;fill-opacity:1;stroke-width:0.194605"
         id="rect40"
         width="5.6062169"
         height="38.236465"
         x="154.47063"
         y="188.47774"
         ry="0" />
      <rect
         style="fill:#ffffff;fill-opacity:1;stroke-width:0.205226"
         id="rect37"
         width="6.3245354"
         height="37.694389"
         x="205.40869"
         y="188.63651"
         ry="0" />
      <rect
         style="fill:#ffffff;fill-opacity:1;stroke-width:0.216241"
         id="rect38"
         width="7.6661034"
         height="34.525642"
         x="155.16866"
         y="241.94157"
         ry="0" />
      <rect
         style="fill:#ffffff;fill-opacity:1;stroke-width:0.158832"
         id="rect39"
         width="22.078377"
         height="6.4677043"
         x="155.16866"
         y="270.38828"
         ry="0" />
      <rect
         style="fill:#ffffff;fill-opacity:1;stroke-width:0.216241"
         id="rect41"
         width="7.6661034"
         height="34.525642"
         x="206.68488"
         y="241.94157"
         ry="0" />
      <rect
         style="fill:#ffffff;fill-opacity:1;stroke-width:0.158832"
         id="rect42"
         width="22.078377"
         height="6.4677043"
         x="206.68488"
         y="270.38828"
         ry="0" />
      <path
         id="ellipse42"
         style="fill:#ffffff;fill-opacity:1;stroke-width:0.192938"
         d="m 159.90184,188.46149 v 5.11923 a 11.885335,6.1076596 0 0 1 10.02745,3.04699 11.885335,6.1076596 0 0 1 0,6.1078 11.885335,6.1076596 0 0 1 -10.02745,3.04641 v 5.7239 a 16.951466,11.522282 0 0 0 14.67988,-5.76079 16.951466,11.522282 0 0 0 0,-11.52217 16.951466,11.522282 0 0 0 -14.67988,-5.76137 z" />
      <rect
         style="fill:#ffffff;fill-opacity:1;stroke-width:0.163007"
         id="rect43"
         width="6.7815723"
         height="22.177851"
         x="70.93277"
         y="225.58455"
         ry="0"
         transform="matrix(1,0,0.40334762,0.91504683,0,0)" />
      <path
         id="path43"
         style="fill:#ffffff;fill-opacity:1;stroke-width:0.2677"
         d="m 211.58585,188.67446 v 5.35225 a 14.233063,13.427186 0 0 1 12.32633,6.71351 14.233063,13.427186 0 0 1 0,13.42756 14.233063,13.427186 0 0 1 -12.32633,6.7135 v 5.43255 a 19.979958,18.819763 0 0 0 17.30335,-9.40998 19.979958,18.819763 0 0 0 0,-18.81941 19.979958,18.819763 0 0 0 -17.30335,-9.40998 z" />
      <rect
         style="fill:#ffffff;fill-opacity:1;stroke-width:0.210416"
         id="rect44"
         width="6.7923846"
         height="36.895546"
         x="0.094643183"
         y="245.75572"
         ry="0"
         transform="matrix(1,0,0.17300401,0.98492112,0,0)" />
      <rect
         style="fill:#ffffff;fill-opacity:1;stroke-width:0.171172"
         id="rect46"
         width="5.5523953"
         height="29.869879"
         x="-141.39732"
         y="261.3634"
         ry="0"
         transform="matrix(-1,0,-0.29369999,0.95589765,0,0)" />
      <rect
         style="fill:#ffffff;fill-opacity:1;stroke-width:0.210416"
         id="rect48"
         width="6.7923846"
         height="36.895546"
         x="-123.59731"
         y="245.75572"
         ry="0"
         transform="matrix(-1,0,-0.17300401,0.98492112,0,0)" />
      <rect
         style="fill:#ffffff;fill-opacity:1;stroke-width:0.171172"
         id="rect49"
         width="5.5523953"
         height="29.869879"
         x="-17.679533"
         y="261.3634"
         ry="0"
         transform="matrix(1,0,0.29369999,0.95589765,0,0)" />
      <rect
         style="fill:#ffffff;fill-opacity:1;stroke-width:0.202333"
         id="rect50"
         width="6.058291"
         height="38.249435"
         x="-196.36278"
         y="254.77379"
         ry="0"
         transform="matrix(-1,0,-0.31207189,0.95005849,0,0)" />
      <rect
         style="fill:#ffffff;fill-opacity:1;stroke-width:0.202333"
         id="rect51"
         width="6.058291"
         height="38.249435"
         x="31.520609"
         y="254.77379"
         ry="0"
         transform="matrix(1,0,0.31207189,0.95005849,0,0)" />
      <rect
         style="fill:#ffffff;fill-opacity:1;stroke-width:0.117142"
         id="rect52"
         width="16.245462"
         height="4.7811618"
         x="106.02809"
         y="262.4101"
         ry="0" />
    </g>
  </g>
</svg>
